<svg id="Blank_cell" data-name="Blank_cell" xmlns="http://www.w3.org/2000/svg" width="83.862" height="130" viewBox="0 0 83.862 130">
  <defs>
    <style>
      .cls-1 {
        fill: #838383;
      }

      .cls-2 {
        fill: #c4c4c4;
      }

      .cls-3, .cls-4 {
        stroke: none;
      }

      .cls-4 {
        fill: #707070;
      }
    </style>
  </defs>
  <g id="パス_3" data-name="パス 3" class="cls-1">
    <path class="cls-3" d="M 75.47597503662109 129.5 L 8.386211395263672 129.5 C 4.037744998931885 129.5 0.4999951124191284 125.3722152709961 0.4999951124191284 120.2985000610352 L 0.4999951124191284 9.701499938964844 C 0.4999951124191284 4.627783298492432 4.037744998931885 0.5 8.386211395263672 0.5 L 75.47597503662109 0.5 C 79.82444763183594 0.5 83.36219787597656 4.627783298492432 83.36219787597656 9.701499938964844 L 83.36219787597656 120.2985000610352 C 83.36219787597656 125.3722152709961 79.82444763183594 129.5 75.47597503662109 129.5 Z"/>
    <path class="cls-4" d="M 8.38623046875 1 C 4.313446044921875 1 0.9999923706054688 4.903465270996094 0.9999923706054688 9.701484680175781 L 0.9999923706054688 120.2984848022461 C 0.9999923706054688 125.0965194702148 4.313446044921875 129 8.38623046875 129 L 75.47598266601562 129 C 79.54874420166016 129 82.86219787597656 125.0965194702148 82.86219787597656 120.2984848022461 L 82.86219787597656 9.701484680175781 C 82.86219787597656 4.903465270996094 79.54874420166016 1 75.47598266601562 1 L 8.38623046875 1 M 8.38623046875 0 L 75.47598266601562 0 C 80.1075439453125 0 83.86219787597656 4.343498229980469 83.86219787597656 9.701484680175781 L 83.86219787597656 120.2984848022461 C 83.86219787597656 125.6564865112305 80.1075439453125 130 75.47598266601562 130 L 8.38623046875 130 C 3.754631042480469 130 -7.62939453125e-06 125.6564865112305 -7.62939453125e-06 120.2984848022461 L -7.62939453125e-06 9.701484680175781 C -7.62939453125e-06 4.343498229980469 3.754631042480469 0 8.38623046875 0 Z"/>
  </g>
  <rect id="長方形_10" data-name="長方形 10" class="cls-2" width="15" height="41.931" transform="translate(61.639 58.452) rotate(90)"/>
  <rect id="長方形_11" data-name="長方形 11" class="cls-2" width="12.579" height="50" transform="translate(34.383 40.952)"/>
</svg>
